<?xml version="1.0" encoding="UTF-8"?>
<svg width="135px" height="40px" viewBox="0 0 135 40" version="1.1" xmlns="http://www.w3.org/2000/svg" xmlns:xlink="http://www.w3.org/1999/xlink">
    <title>Google Play Badge US</title>
    <defs>
        <linearGradient x1="61.0339412%" y1="4.9481245%" x2="26.5026568%" y2="71.9074222%" id="linearGradient-1">
            <stop stop-color="#00A0FF" offset="0%"></stop>
            <stop stop-color="#00A1FF" offset="1%"></stop>
            <stop stop-color="#00BEFF" offset="26%"></stop>
            <stop stop-color="#00D2FF" offset="51%"></stop>
            <stop stop-color="#00DFFF" offset="76%"></stop>
            <stop stop-color="#00E3FF" offset="100%"></stop>
        </linearGradient>
        <linearGradient x1="107.684729%" y1="50%" x2="-130.640394%" y2="50%" id="linearGradient-2">
            <stop stop-color="#FFE000" offset="0%"></stop>
            <stop stop-color="#FFBD00" offset="41%"></stop>
            <stop stop-color="#FFA500" offset="78%"></stop>
            <stop stop-color="#FF9C00" offset="100%"></stop>
        </linearGradient>
        <linearGradient x1="86.219293%" y1="30.9112842%" x2="-50.1497903%" y2="135.987548%" id="linearGradient-3">
            <stop stop-color="#FF3A44" offset="0%"></stop>
            <stop stop-color="#C31162" offset="100%"></stop>
        </linearGradient>
        <linearGradient x1="-18.7537448%" y1="-11.831554%" x2="42.1210306%" y2="35.0948125%" id="linearGradient-4">
            <stop stop-color="#32A071" offset="0%"></stop>
            <stop stop-color="#2DA771" offset="7%"></stop>
            <stop stop-color="#15CF74" offset="48%"></stop>
            <stop stop-color="#06E775" offset="80%"></stop>
            <stop stop-color="#00F076" offset="100%"></stop>
        </linearGradient>
    </defs>
    <g id="Page-1" stroke="none" stroke-width="1" fill="none" fill-rule="evenodd">
        <g id="App-Store-Badge-Icons" transform="translate(-297.000000, -25.000000)" fill-rule="nonzero">
            <g id="Google-Play-Badge-US" transform="translate(297.000000, 25.000000)">
                <rect id="Background-Black" fill="#000000" x="0" y="0" width="135" height="40" rx="5"></rect>
                <path d="M130,0.8 C132.319596,0.8 134.2,2.68040405 134.2,5 L134.2,35 C134.2,37.3195959 132.319596,39.2 130,39.2 L5,39.2 C2.68040405,39.2 0.8,37.3195959 0.8,35 L0.8,5 C0.8,2.68040405 2.68040405,0.8 5,0.8 L130,0.8 L130,0.8 Z M130,0 L5,0 C2.23857625,0 0,2.23857625 0,5 L0,35 C0,37.7614237 2.23857625,40 5,40 L130,40 C132.761424,40 135,37.7614237 135,35 L135,5 C135,2.23857625 132.761424,0 130,0 Z" id="Border-Gray" fill="#A6A6A6"></path>
                <path d="M68.14,21.75 C65.795425,21.7610334 63.9026739,23.6686811 63.9099995,26.0132706 C63.9173678,28.3578601 65.8220372,30.2536083 68.1666353,30.2499531 C70.5112334,30.2462873 72.409974,28.344601 72.4099995,26 C72.426473,24.8643738 71.9812316,23.7707097 71.1762551,22.9695037 C70.3712787,22.1682976 69.2755364,21.7281956 68.14,21.75 L68.14,21.75 Z M68.14,28.58 C67.0832273,28.6539053 66.088673,28.0743135 65.6320213,27.1184371 C65.1753697,26.1625607 65.3494358,25.0246828 66.0709659,24.249038 C66.7924959,23.4733932 67.9148379,23.2176324 68.9011878,23.6040831 C69.8875378,23.9905338 70.5374189,24.9406494 70.54,26 C70.5725428,26.6626719 70.3360327,27.3103928 69.8841403,27.7961771 C69.432248,28.2819613 68.8032921,28.5646164 68.14,28.58 L68.14,28.58 Z M58.83,21.75 C56.4840995,21.7555198 54.5863275,23.6607469 54.5899999,26.006651 C54.5936829,28.3525551 56.4974192,30.2518225 58.8433255,30.2499883 C61.1892318,30.2481513 63.0899999,28.345907 63.0899999,26 C63.106473,24.8643738 62.6612316,23.7707097 61.8562551,22.9695037 C61.0512787,22.1682976 59.9555364,21.7281956 58.82,21.75 L58.83,21.75 Z M58.83,28.58 C57.7726757,28.658073 56.7752215,28.0813713 56.3153517,27.1260966 C55.8554819,26.1708219 56.0268227,25.0314615 56.7473134,24.2536934 C57.467804,23.4759253 58.5907575,23.2180976 59.5783538,23.6036927 C60.5659501,23.9892877 61.2171215,24.9398011 61.22,26 C61.2525428,26.6626719 61.0160327,27.3103928 60.5641403,27.7961771 C60.112248,28.2819613 59.4832921,28.5646164 58.82,28.58 L58.83,28.58 Z M47.74,23.06 L47.74,24.86 L52.06,24.86 C51.9922634,25.7078038 51.6398446,26.5077945 51.06,27.13 C50.1860229,28.0202246 48.9765432,28.499658 47.73,28.45 C45.0790332,28.45 42.93,26.3009668 42.93,23.65 C42.93,20.9990332 45.0790332,18.85 47.73,18.85 C48.9477957,18.8301388 50.123762,19.2940521 51,20.14 L52.27,18.87 C51.0749196,17.6598581 49.4407184,16.9852541 47.74,17 C45.3189608,16.905779 43.0403936,18.1436718 41.801854,20.2260571 C40.5633145,22.3084423 40.5633145,24.9015577 41.801854,26.9839429 C43.0403936,29.0663282 45.3189608,30.304221 47.74,30.21 C49.471765,30.2882543 51.1527407,29.6136762 52.35,28.36 C53.3976757,27.2089216 53.9570431,25.6957612 53.91,24.14 C53.9132269,23.7609882 53.8797372,23.3825548 53.81,23.01 L47.74,23.06 Z M93.05,24.46 C92.5160796,22.8892101 91.0679278,21.811053 89.41,21.7499923 C88.3043635,21.7478383 87.2471451,22.2034076 86.4893794,23.0085336 C85.7316138,23.8136596 85.3408955,24.8965231 85.41,26 C85.385441,27.1292961 85.8211644,28.2200283 86.6170522,29.0215741 C87.4129399,29.8231198 88.5005582,30.2665588 89.63,30.2499923 C91.0508585,30.257659 92.3806434,29.5514455 93.17,28.37 L91.72,27.37 C91.279746,28.1039422 90.4858563,28.552167 89.63,28.55 C88.7435914,28.5837851 87.9266413,28.0721998 87.57,27.26 L93.26,24.91 L93.05,24.46 Z M87.25,25.88 C87.2090519,25.2551643 87.4213257,24.640145 87.8389667,24.1735911 C88.2566076,23.7070373 88.8444602,23.4282216 89.47,23.4 C90.1293698,23.3565516 90.7510664,23.7106826 91.05,24.3 L87.25,25.88 Z M82.63,30 L84.5,30 L84.5,17.5 L82.63,17.5 L82.63,30 Z M79.57,22.6999974 L79.5,22.6999974 C78.9299621,22.0626768 78.1150572,21.69888 77.26,21.6999974 C74.9901469,21.8100717 73.2063371,23.6824796 73.2063371,25.955 C73.2063371,28.2275204 74.9901469,30.0999283 77.26,30.21 C78.117829,30.2244237 78.9380159,29.8582688 79.5,29.21 L79.56,29.21 L79.56,29.82 C79.56,31.45 78.69,32.32 77.29,32.32 C76.336303,32.2976774 75.4907281,31.7010334 75.15,30.81 L73.52,31.49 C74.1476816,33.016811 75.6392308,34.0098583 77.29,34.0000727 C79.48,34.0000727 81.29,32.71 81.29,29.57 L81.29,22 L79.57,22 L79.57,22.6999974 Z M77.43,28.58 C76.0928876,28.4621598 75.0673763,27.342295 75.0673763,26 C75.0673763,24.657705 76.0928876,23.5378402 77.43,23.42 C78.0761196,23.4531575 78.6814859,23.7457702 79.1088498,24.2314965 C79.5362137,24.7172228 79.749373,25.3549169 79.7,26 C79.7551348,26.6480494 79.5426575,27.2904311 79.1119703,27.7777877 C78.6812831,28.2651443 78.0699104,28.5550138 77.42,28.58 L77.43,28.58 Z M101.81,17.5 L97.34,17.5 L97.34,30 L99.21,30 L99.21,25.26 L101.82,25.26 C103.272684,25.3643638 104.661974,24.648509 105.42013,23.404973 C106.178286,22.161437 106.178286,20.598563 105.42013,19.355027 C104.661974,18.111491 103.272684,17.3956362 101.82,17.5 L101.81,17.5 Z M101.81,23.5 L99.2,23.5 L99.2,19.24 L101.85,19.24 C103.034651,19.24 103.995,20.2003492 103.995,21.385 C103.995,22.5696508 103.034651,23.53 101.85,23.53 L101.81,23.5 Z M113.34,21.7 C111.948713,21.6168389 110.640687,22.367088 110.01,23.61 L111.67,24.3 C112.004406,23.6836682 112.671125,23.3228556 113.37,23.38 C113.849528,23.3239946 114.331454,23.4629701 114.707528,23.7657102 C115.083603,24.0684503 115.322299,24.5095749 115.37,24.99 L115.37,25.12 C114.769393,24.8019991 114.099592,24.6371252 113.42,24.64 C111.63,24.64 109.82,25.64 109.82,27.45 C109.855688,28.2297088 110.20524,28.9618295 110.789131,29.4797974 C111.373022,29.9977652 112.141598,30.2575326 112.92,30.2 C113.879229,30.2688831 114.799569,29.8087132 115.32,29 L115.38,29 L115.38,30 L117.18,30 L117.18,25.19 C117.18,23 115.52,21.73 113.39,21.73 L113.34,21.7 Z M113.11,28.55 C112.5,28.55 111.65,28.24 111.65,27.49 C111.65,26.49 112.71,26.16 113.65,26.16 C114.244042,26.1453419 114.831131,26.2903874 115.35,26.58 C115.220696,27.699415 114.286524,28.5525405 113.16,28.58 L113.11,28.55 Z M123.74,22 L121.6,27.42 L121.54,27.42 L119.32,22 L117.32,22 L120.65,29.58 L118.75,33.79 L120.7,33.79 L125.82,22 L123.74,22 Z M106.93,30 L108.8,30 L108.8,17.5 L106.93,17.5 L106.93,30 Z" id="Google-Play" fill="#FFFFFF"></path>
                <path d="M47.42,10.24 C47.4543536,10.981231 47.1832676,11.7041269 46.67,12.24 C46.0964498,12.8358032 45.2964838,13.1594258 44.47,13.13 C43.2023403,13.1200788 42.0641482,12.3512162 41.5816918,11.1789127 C41.0992355,10.0066092 41.3665355,8.65932246 42.26,7.76 C42.840533,7.16732597 43.6405789,6.84151543 44.47,6.86 C44.8927576,6.85859143 45.3113359,6.94366832 45.7,7.11 C46.0618545,7.25595356 46.3839841,7.48555656 46.64,7.78 L46.11,8.31 C45.7053468,7.82867645 45.0978848,7.56568987 44.47,7.6 C43.8388494,7.59690387 43.2336793,7.85108766 42.794036,8.30393914 C42.3543927,8.75679062 42.1182283,9.36921739 42.14,10 C42.1266019,10.9531897 42.6879765,11.8208395 43.5629333,12.1992583 C44.43789,12.5776771 45.4545926,12.3925456 46.14,11.73 C46.4477095,11.3965366 46.625183,10.9635013 46.64,10.51 L44.47,10.51 L44.47,9.79 L47.38,9.79 C47.4066731,9.93851412 47.4200594,10.0891096 47.42,10.24 L47.42,10.24 Z M52,7.74 L49.3,7.74 L49.3,9.64 L51.76,9.64 L51.76,10.36 L49.3,10.36 L49.3,12.26 L52,12.26 L52,13 L48.5,13 L48.5,7 L52,7 L52,7.74 Z M55.28,13 L54.51,13 L54.51,7.74 L52.83,7.74 L52.83,7 L57,7 L57,7.74 L55.28,7.74 L55.28,13 Z M59.94,13 L59.94,7 L60.71,7 L60.71,13 L59.94,13 Z M64.13,13 L63.36,13 L63.36,7.74 L61.68,7.74 L61.68,7 L65.8,7 L65.8,7.74 L64.13,7.74 L64.13,13 Z M73.61,12.22 C72.3929898,13.4302279 70.4270102,13.4302279 69.21,12.22 C68.0302689,10.9712339 68.0302689,9.01876613 69.21,7.77 C69.7919984,7.18374669 70.5839158,6.85403297 71.41,6.85403297 C72.2360842,6.85403297 73.0280016,7.18374669 73.61,7.77 C74.7947655,9.01675984 74.7947655,10.9732402 73.61,12.22 L73.61,12.22 Z M69.78,11.72 C70.6813239,12.6175651 72.1386761,12.6175651 73.04,11.72 C73.9251983,10.7441711 73.9251983,9.25582886 73.04,8.28 C72.1386761,7.38243493 70.6813239,7.38243493 69.78,8.28 C68.8948017,9.25582886 68.8948017,10.7441711 69.78,11.72 L69.78,11.72 Z M75.58,13 L75.58,7 L76.52,7 L79.44,11.67 L79.44,7 L80.21,7 L80.21,13 L79.41,13 L76.36,8.11 L76.36,13 L75.58,13 Z" id="GET-IT-ON" stroke="#FFFFFF" stroke-width="0.2" fill="#FFFFFF"></path>
                <g id="Icon" transform="translate(9.000000, 7.000000)">
                    <path d="M1.44,0.54 C1.11406496,0.931108335 0.94955365,1.43179492 0.98,1.94 L0.98,24.06 C0.94955365,24.5682051 1.11406496,25.0688917 1.44,25.46 L1.51,25.53 L13.9,13.15 L13.9,12.86 L1.51,0.47 L1.44,0.54 Z" id="Shape" fill="url(#linearGradient-1)"></path>
                    <path d="M18,17.28 L13.9,13.15 L13.9,12.86 L18,8.72 L18.09,8.77 L23,11.56 C24.4,12.35 24.4,13.65 23,14.45 L18.11,17.23 L18,17.28 Z" id="Shape" fill="url(#linearGradient-2)"></path>
                    <path d="M18.12,17.22 L13.9,13 L1.44,25.46 C2.02871773,25.9775224 2.90242896,26.0027256 3.52,25.52 L18.13,17.22" id="Shape" fill="url(#linearGradient-3)"></path>
                    <path d="M18.12,8.78 L3.51,0.48 C2.89242896,-0.0027256091 2.01871773,0.0224775995 1.43,0.54 L13.9,13 L18.12,8.78 Z" id="Shape" fill="url(#linearGradient-4)"></path>
                    <path d="M18,17.13 L3.51,25.38 C2.91703854,25.8233364 2.10296146,25.8233364 1.51,25.38 L1.44,25.45 L1.51,25.52 C2.10184579,25.9666792 2.91815421,25.9666792 3.51,25.52 L18.12,17.22 L18,17.13 Z" id="Shape" fill="#000000" opacity="0.2"></path>
                    <path d="M1.44,25.32 C1.11406496,24.9288917 0.94955365,24.4282051 0.98,23.92 L0.98,24.07 C0.94955365,24.5782051 1.11406496,25.0788917 1.44,25.47 L1.51,25.4 L1.44,25.32 Z M23,14.3 L18,17.13 L18.09,17.22 L23,14.44 C23.5670701,14.1736132 23.9484684,13.6243997 24,13 C23.8860295,13.5648379 23.516706,14.0449585 23,14.3 Z" id="Shape" fill="#000000" opacity="0.12"></path>
                    <path d="M3.51,0.62 L23,11.7 C23.516706,11.9550415 23.8860295,12.4351621 24,13 C23.9484684,12.3756003 23.5670701,11.8263868 23,11.56 L3.51,0.48 C2.11,-0.31 0.97,0.35 0.97,1.95 L0.97,2.1 C1,0.49 2.12,-0.17 3.51,0.62 L3.51,0.62 Z" id="Shape" fill="#FFFFFF" opacity="0.25"></path>
                </g>
            </g>
        </g>
    </g>
</svg>